<svg width="704" height="703" xmlns="http://www.w3.org/2000/svg" xmlns:xlink="http://www.w3.org/1999/xlink" xml:space="preserve" overflow="hidden"><g transform="translate(-402 85)"><g><g><g><g><path d="M791.151 143.416C817.844 143.416 839.482 121.778 839.482 95.0852 839.482 68.3924 817.844 46.7539 791.151 46.7539 764.458 46.7539 742.82 68.3924 742.82 95.0852 742.82 121.778 764.458 143.416 791.151 143.416ZM791.151 61.4583C809.755 61.4583 824.837 76.5399 824.837 95.1437 824.837 113.748 809.755 128.829 791.151 128.829 772.547 128.829 757.466 113.748 757.466 95.1437 757.466 76.5399 772.547 61.4583 791.151 61.4583Z" fill="#FFFFFF" fill-rule="nonzero" fill-opacity="1"/><path d="M684.237 427.604C682.267 427.604 680.414 427.604 678.657 427.553 677.508 432.51 675.96 437.366 674.029 442.074 677.207 442.184 680.575 442.25 684.237 442.25L835.089 442.25C833.133 437.503 831.566 432.605 830.402 427.604Z" fill="#FFFFFF" fill-rule="nonzero" fill-opacity="1"/><path d="M730.847 377.713C726.837 392.36 735.461 407.485 750.108 411.495 764.059 415.314 778.582 407.673 783.338 394.014L818.356 281.453 862.081 256.863C875.439 261.69 890.181 254.773 895.008 241.415 899.402 229.253 894.084 215.721 882.585 209.806L870.312 203.215C869.693 198.234 868.577 193.328 866.98 188.57 873.3 186.884 879.808 186.003 886.349 185.948 930.815 186.001 966.849 222.034 966.901 266.5 966.621 280.725 962.784 294.654 955.741 307.018L950.556 314.553C955.335 316.028 959.988 317.884 964.47 320.104L968.131 314.721C976.606 300.039 981.221 283.449 981.547 266.5 981.486 213.949 938.901 171.363 886.349 171.302 875.653 171.534 865.053 173.373 854.904 176.758L846.644 179.299 850.503 187.024C851.619 189.26 852.581 191.57 853.381 193.937L763.06 145.445C742.837 137.365 719.742 145.233 708.659 163.979L657.171 252.257 656.907 252.806 498.235 236.417 498.235 279.235 611.74 314.033C626.67 318.219 640.352 325.992 651.591 336.676 648.522 318.889 635.128 304.654 617.561 300.508L512.88 268.411 512.88 252.645 650.969 266.91C645.753 285.294 656.429 304.425 674.813 309.64 676.54 310.13 678.303 310.484 680.085 310.701L748.715 319.086ZM802.831 273.398C797.75 269.141 791.41 266.674 784.788 266.376L753.299 262.714 782.093 213.101 846.637 248.749ZM666.332 267.371 670.059 259.177 721.32 171.339C728.661 158.714 744.201 153.456 757.7 159.029L875.855 222.738C881.469 225.29 883.951 231.909 881.399 237.523 878.847 243.137 872.228 245.619 866.614 243.067L776.601 193.351 729.419 274.68 783.557 280.97C787.928 280.974 792.075 282.903 794.893 286.243 796.842 288.951 797.896 292.199 797.91 295.535L797.493 299.98 769.878 388.251C768.021 395.126 760.941 399.194 754.066 397.337 750.763 396.445 747.951 394.278 746.247 391.312 744.555 388.404 744.081 384.945 744.929 381.689L767.806 306.659 681.857 296.158C670.847 294.79 663.032 284.757 664.4 273.747 664.676 271.531 665.319 269.376 666.303 267.371Z" fill="#FFFFFF" fill-rule="nonzero" fill-opacity="1"/><path d="M586.109 325.083C541.622 325.083 505.557 361.148 505.557 405.635 505.557 450.123 541.622 486.188 586.109 486.188 630.597 486.188 666.662 450.123 666.662 405.635 666.662 361.148 630.597 325.083 586.109 325.083ZM586.109 471.542C549.71 471.542 520.203 442.035 520.203 405.635 520.203 369.236 549.71 339.729 586.109 339.729 622.509 339.729 652.016 369.236 652.016 405.635 651.976 442.018 622.492 471.501 586.109 471.542Z" fill="#FFFFFF" fill-rule="nonzero" fill-opacity="1"/><path d="M922.964 325.083C878.476 325.083 842.412 361.148 842.412 405.635 842.412 450.123 878.476 486.188 922.964 486.188 967.451 486.188 1003.52 450.123 1003.52 405.635 1003.52 361.148 967.451 325.083 922.964 325.083ZM922.964 471.542C886.564 471.542 857.057 442.035 857.057 405.635 857.057 369.236 886.564 339.729 922.964 339.729 959.363 339.729 988.87 369.236 988.87 405.635 988.83 442.018 959.346 471.501 922.964 471.542Z" fill="#FFFFFF" fill-rule="nonzero" fill-opacity="1"/></g></g></g></g></g></svg>